<svg xmlns="http://www.w3.org/2000/svg" viewBox="0 0 180 122"><title>Asset 16</title><g data-name="Layer 2"><g data-name="Layer 1"><path fill="none" d="M0 0h180v122H0z"/><path d="M58.4 47.89h21.21v65.7H58.4v-8c-5.75 8.84-14 10.16-19.45 10.16-9.43 0-17.39-2.36-24.6-10a34.76 34.76 0 0 1-9.58-24.6c0-11.05 4.12-20.48 10.17-26.52 5.75-5.75 13.7-9 22.84-9 5.6 0 14.58 1.33 20.62 9.58zm-27 20.77a16.42 16.42 0 0 0-4.86 11.93A17 17 0 0 0 31 92.38a17.43 17.43 0 0 0 12.52 5.16A15.73 15.73 0 0 0 54.57 93a17.43 17.43 0 0 0 .29-24.45 17.75 17.75 0 0 0-11.78-4.57 16.72 16.72 0 0 0-11.64 4.68zM121.6 6.2v49.06c5.31-7.22 13.26-9.58 20.48-9.58a33.11 33.11 0 0 1 22.83 8.84c6.33 6 10.31 15 10.31 25.93 0 10.17-3.53 19.59-10.31 26.37-5.75 5.89-12.81 9-22.54 9-11.64 0-17.53-5.45-20.77-10.16v8h-21.21V6.2zm3.4 62.61a16.94 16.94 0 0 0-4.72 12.08 16 16 0 0 0 4.86 11.78 18.09 18.09 0 0 0 12.08 4.86A16.28 16.28 0 0 0 148.27 93a16.65 16.65 0 0 0 5.16-12.08 16.92 16.92 0 0 0-5.16-12.52 15.41 15.41 0 0 0-11.34-4.42A15.57 15.57 0 0 0 125 68.81z" fill="#fff"/></g></g></svg>