<svg xmlns="http://www.w3.org/2000/svg" viewBox="0 0 68 68"><title>Asset 1</title><g data-name="Layer 2"><g data-name="Layer 1"><path fill="none" d="M0 0h68v68H0z"/><path d="M34 3a17.22 17.22 0 0 1 17.22 17.22c0 7.92 3.7 11.78 4.84 18.43a1.91 1.91 0 0 1-1.87 2.23H13.81a1.91 1.91 0 0 1-1.87-2.23c1.14-6.65 4.83-10.5 4.83-18.43A17.23 17.23 0 0 1 34 3zm10.87 12a10.67 10.67 0 0 1-1.94.17c-4.77 0-8.66-3.57-8.91-7-.25 3.45-4.14 7-8.91 7a10.67 10.67 0 0 1-1.98-.17 12.06 12.06 0 1 0 21.74 0zm-15.69 2.81a2.41 2.41 0 1 0 2.41 2.41 2.41 2.41 0 0 0-2.41-2.41zm9.64 0a2.41 2.41 0 1 0 2.41 2.41 2.41 2.41 0 0 0-2.41-2.41zM56 46.53a22.39 22.39 0 0 1-44.09 0 1.88 1.88 0 0 1 1.87-2.21h40.4A1.88 1.88 0 0 1 56 46.53z" fill="#ff5c5c" fill-rule="evenodd"/></g></g></svg>