<svg xmlns="http://www.w3.org/2000/svg" viewBox="0 0 68 68"><title>Asset 4</title><g data-name="Layer 2"><g data-name="Layer 1"><path fill="none" d="M0 0h68v68H0z"/><path d="M60.32 3.74h-2.85a3.89 3.89 0 0 0-3.89 3.9v54.64a2 2 0 0 0 1.93 2h6.76a2 2 0 0 0 2-2V7.64a3.93 3.93 0 0 0-3.95-3.9zM47.86 16.2H45a3.89 3.89 0 0 0-3.9 3.9v42.18a2 2 0 0 0 1.94 2h6.76a2 2 0 0 0 2-2V20.1a3.93 3.93 0 0 0-3.94-3.9zM22.95 41.12H20.1A3.89 3.89 0 0 0 16.2 45v17.28a2 2 0 0 0 1.94 2h6.76a2 2 0 0 0 2-2V45a3.92 3.92 0 0 0-3.95-3.88zM35.4 28.66h-2.84a3.89 3.89 0 0 0-3.9 3.9v29.72a2 2 0 0 0 .82 1.61 1.93 1.93 0 0 0 1.12.37h6.76a2 2 0 0 0 2-2v-29.7a3.93 3.93 0 0 0-3.96-3.9zM10.49 53.58H7.65a3.89 3.89 0 0 0-3.9 3.89v4.8a2 2 0 0 0 1.95 2h6.76a2 2 0 0 0 2-2v-4.8a3.92 3.92 0 0 0-3.97-3.89z" fill="#ff5c5c"/><path d="M30.42 21.27v-14a3.32 3.32 0 0 0-3.55-3.55h-14a3.56 3.56 0 0 0 0 7.11h5.44L6.85 22.32a3.53 3.53 0 1 0 5 5l11.47-11.48v5.44a3.56 3.56 0 0 0 3.54 3.54 3.61 3.61 0 0 0 3.56-3.55z" fill="#4fbd3c"/></g></g></svg>