<svg xmlns="http://www.w3.org/2000/svg" viewBox="0 0 34 34"><title>Asset 6</title><g data-name="Layer 2"><g data-name="Layer 1"><path d="M31.79 0h-1.6A2.19 2.19 0 0 0 28 2.19v30.7A1.1 1.1 0 0 0 29.09 34h3.8A1.13 1.13 0 0 0 34 32.89V2.19A2.21 2.21 0 0 0 31.79 0zm-7 7h-1.6A2.19 2.19 0 0 0 21 9.19v23.7A1.1 1.1 0 0 0 22.09 34h3.8A1.13 1.13 0 0 0 27 32.89V9.19A2.21 2.21 0 0 0 24.79 7zm-14 14h-1.6A2.19 2.19 0 0 0 7 23.19v9.7A1.1 1.1 0 0 0 8.09 34h3.8A1.12 1.12 0 0 0 13 32.89v-9.7A2.2 2.2 0 0 0 10.79 21zm7-7h-1.6A2.19 2.19 0 0 0 14 16.19v16.7a1.11 1.11 0 0 0 .46.91 1.08 1.08 0 0 0 .63.21h3.8A1.12 1.12 0 0 0 20 32.89v-16.7A2.21 2.21 0 0 0 17.79 14zm-14 14h-1.6A2.19 2.19 0 0 0 0 30.19v2.7A1.11 1.11 0 0 0 1.09 34h3.8A1.12 1.12 0 0 0 6 32.89v-2.7A2.2 2.2 0 0 0 3.79 28z" fill="#ff5c5c"/><path d="M15 9.85V2a1.86 1.86 0 0 0-2-2H5.14a2 2 0 0 0 0 4h3.05l-6.45 6.44a2 2 0 1 0 2.81 2.81L11 6.8v3.05a2 2 0 0 0 2 2 2 2 0 0 0 2-2z" fill="#4fbd3c"/></g></g></svg>