<svg xmlns="http://www.w3.org/2000/svg" viewBox="0 0 68 68"><title>Asset 3</title><g data-name="Layer 2"><g data-name="Layer 1"><path fill="none" d="M0 0h68v68H0z"/><path d="M34 26.16a11.66 11.66 0 0 0-4 .7l4 10.94-10.56-4.92A11.65 11.65 0 1 0 34 26.16z" fill="#3c79cf"/><path d="M63.13 37.92s.27-2.95-4.91-9.24l3.42-3.87a2.58 2.58 0 1 0-3.86-3.42l-3.11 3.51c-.81-.75-1.67-1.5-2.58-2.21l2.64-4.22a2.58 2.58 0 1 0-4.39-2.73l-2.5 4a34.18 34.18 0 0 0-3.18-1.68l1.52-4.74a2.58 2.58 0 0 0-4.91-1.58l-1.47 4.58a24.39 24.39 0 0 0-3.31-.6v-5.13a2.59 2.59 0 1 0-5.18 0v5.18a24.36 24.36 0 0 0-3.2.61l-1.48-4.62a2.58 2.58 0 0 0-4.91 1.58l1.54 4.81a32.88 32.88 0 0 0-3.15 1.69l-2.56-4.09a2.58 2.58 0 0 0-4.39 2.73l2.72 4.35c-.88.72-1.72 1.47-2.52 2.24l-3.25-3.67a2.58 2.58 0 1 0-3.86 3.42l3.61 4.08c-3.14 3.88-5 7.54-5 9 0 2.44 5 10.7 12.54 16.13 4.68 3.37 10.4 6 16.61 6 .6 0 1.22 0 1.86-.08 7.49-.61 14.21-4.79 19-9.27 8.65-8 8.26-12.76 8.26-12.76zm-7.76.1c0 .63-8.58 13.24-20.1 14.17h-1.25c-4.39 0-8.58-1.94-12.09-4.47-5.59-4-9.3-8.77-9.3-9.86S16.35 32 22 27.88c3.5-2.55 7.69-4.51 12.06-4.51q.66 0 1.29.06c11.48 1 20 13.9 20.06 14.38-.04.06-.04.14-.04.19z" fill="#3c79cf"/></g></g></svg>