<svg xmlns="http://www.w3.org/2000/svg" viewBox="0 0 40 40"><title>Asset 4</title><g data-name="Layer 2"><g data-name="Layer 1" fill="#fff"><path d="M20 2A18 18 0 1 1 2 20 18 18 0 0 1 20 2m0-2a20 20 0 1 0 20 20A20 20 0 0 0 20 0z"/><path d="M30.71 21.08v7.39h-4.29v-6.9c0-1.73-.62-2.92-2.17-2.92a2.35 2.35 0 0 0-2.2 1.57 2.93 2.93 0 0 0-.14 1v7.2h-4.29s.06-11.68 0-12.9h4.29v1.83a4.26 4.26 0 0 1 3.86-2.13c2.82.05 4.94 1.9 4.94 5.86zM13.13 9.36a2.23 2.23 0 1 0-.06 4.46 2.24 2.24 0 1 0 0-4.46zM11 28.47h4.29V15.58H11z"/></g></g></svg>