<svg xmlns="http://www.w3.org/2000/svg" viewBox="0 0 68 68"><title>Asset 5</title><g data-name="Layer 2"><g data-name="Layer 1"><path fill="none" d="M0 0h68v68H0z"/><path d="M54.37 10H13.63a7.29 7.29 0 0 0-7.25 7.25V39.7a7.29 7.29 0 0 0 7.25 7.25h28.66L53.34 58V46.95h1a7.29 7.29 0 0 0 7.25-7.25V17.25A7.29 7.29 0 0 0 54.37 10zM17.42 33.48a5.18 5.18 0 1 1 5.18-5.18 5.18 5.18 0 0 1-5.18 5.18zm16.58 0a5.18 5.18 0 1 1 5.18-5.18A5.18 5.18 0 0 1 34 33.48zm16.58 0a5.18 5.18 0 1 1 5.18-5.18 5.18 5.18 0 0 1-5.18 5.18z" fill="#faaf40"/></g></g></svg>