<svg xmlns="http://www.w3.org/2000/svg" viewBox="0 0 68 68"><title>Asset 2</title><g data-name="Layer 2"><g data-name="Layer 1"><path fill="none" d="M0 0h68v68H0z"/><path d="M50 29.6a3.28 3.28 0 0 0 4.65 0l1.91-1.91 1.91 1.91a3.28 3.28 0 1 0 4.6-4.6l-1.92-2 1.91-1.91a3.28 3.28 0 0 0-4.65-4.64l-1.9 1.95-1.91-1.91a3.28 3.28 0 0 0-4.6 4.65L51.87 23 50 25a3.29 3.29 0 0 0 0 4.6zM7.53 20a3.28 3.28 0 0 0 4.65 0l1.9-2L16 20a3.28 3.28 0 0 0 4.64-4.64l-1.91-1.96 1.91-1.91A3.28 3.28 0 0 0 16 6.85l-1.92 1.91-1.91-1.91a3.28 3.28 0 0 0-4.65 4.64l1.92 1.91-1.91 1.91a3.28 3.28 0 0 0 0 4.69z" fill="#ff5c5c"/><path d="M43.25 4H30.63a3 3 0 0 0-3 3.11v.44a3.18 3.18 0 0 0 3 3.26h2.91a22.12 22.12 0 0 0-6.06 15.29 31.42 31.42 0 0 0 .67 6.44c1.54 7.34 2.19 10.63 3.15 14.68a8.91 8.91 0 1 0 6.5-.77c-1.3-5.72-3.19-15.18-3.6-18a17 17 0 0 1-.2-2.35c0-4.2 2.17-8.39 5.36-11.58l.08-.08v4.83a3.52 3.52 0 0 0 3.26 3.36h.44a3.28 3.28 0 0 0 3.05-3.3V7.1A3.1 3.1 0 0 0 43.25 4zm-7.72 48.7a2.35 2.35 0 1 1-1.66.69 2.34 2.34 0 0 1 1.65-.66z" fill="#4fbd3c"/><path d="M16.2 25.42a3 3 0 0 0-4.21 0l-8.43 8.43a3.06 3.06 0 0 0 0 4.32l.31.31a3.07 3.07 0 0 0 4.33 0l2.54-2.64v11a5.2 5.2 0 0 0-2.89 2 8.91 8.91 0 1 0 12.62 0 5.37 5.37 0 0 0-3-2v-11l2.6 2.72a3.05 3.05 0 0 0 4.31 0l.3-.31a3.06 3.06 0 0 0 0-4.32zm-.4 31.32a2.35 2.35 0 1 1 .69-1.66 2.35 2.35 0 0 1-.69 1.66zm46.92-7.97a5.23 5.23 0 0 0-2.9-2v-5.52h2.83A2.23 2.23 0 0 0 64.9 39v-2.32a2.22 2.22 0 0 0-2.25-2.2H50.22a2.22 2.22 0 0 0-2.22 2.2V39a2.23 2.23 0 0 0 2.25 2.21H53v5.53a5.39 5.39 0 0 0-3 2 8.92 8.92 0 1 0 12.63 0zm-4.65 8a2.35 2.35 0 1 1 .69-1.66 2.35 2.35 0 0 1-.69 1.63z" fill="#3c79cf"/></g></g></svg>