<svg xmlns="http://www.w3.org/2000/svg" viewBox="0 0 104 30"><title>Asset 15</title><g data-name="Layer 2"><g data-name="Layer 1"><path d="M92 29.54c-3.25 0-4.89-2.19-6.21-4s-2.13-2.75-3.8-2.75-2.49 1-3.8 2.75-3 4-6.2 4-4.89-2.19-6.2-4-2.13-2.75-3.8-2.75-2.49 1-3.8 2.75-3 4-6.2 4-4.89-2.19-6.2-4-2.13-2.71-3.79-2.71-2.49 1-3.79 2.75-2.95 4-6.2 4-4.89-2.19-6.2-4-2.13-2.75-3.8-2.75-2.49 1-3.8 2.75-2.95 4-6.2 4-4.89-2.19-6.2-4S3.67 22.83 2 22.83a1.5 1.5 0 1 1 0-3c3.25 0 4.89 2.19 6.2 4s2.13 2.75 3.8 2.75 2.49-1 3.79-2.75 2.95-4 6.2-4 4.89 2.19 6.2 4 2.13 2.75 3.8 2.75 2.49-1 3.79-2.75 2.95-4 6.2-4 4.89 2.19 6.2 4 2.13 2.75 3.79 2.75 2.49-1 3.8-2.75 3-4 6.2-4 4.89 2.19 6.2 4 2.13 2.75 3.8 2.75 2.49-1 3.8-2.75 3-4 6.2-4 4.89 2.19 6.21 4 2.13 2.75 3.8 2.75 2.49-1 3.8-2.75 3-4 6.21-4a1.5 1.5 0 0 1 0 3c-1.67 0-2.49 1-3.8 2.75s-2.94 3.96-6.19 3.96z" fill="#fff"/><path fill="none" d="M0 0h104v30H0z"/></g></g></svg>