<svg xmlns="http://www.w3.org/2000/svg" viewBox="0 0 68 68"><title>Asset 1</title><g id="Layer_2" data-name="Layer 2"><g id="Layer_1-2" data-name="Layer 1"><rect width="68" height="68" style="fill:none"/><path d="M34,3A17.22,17.22,0,0,1,51.22,20.22c0,7.92,3.7,11.78,4.84,18.43a1.91,1.91,0,0,1-1.87,2.23H13.81a1.91,1.91,0,0,1-1.87-2.23c1.14-6.65,4.83-10.5,4.83-18.43A17.23,17.23,0,0,1,34,3ZM44.87,15a10.67,10.67,0,0,1-1.94.17c-4.77,0-8.66-3.57-8.91-7h0c-.25,3.45-4.14,7-8.91,7A10.67,10.67,0,0,1,23.13,15a12.06,12.06,0,1,0,21.74,0ZM29.18,17.81a2.41,2.41,0,1,0,2.41,2.41,2.41,2.41,0,0,0-2.41-2.41Zm9.64,0a2.41,2.41,0,1,0,2.41,2.41,2.41,2.41,0,0,0-2.41-2.41ZM56,46.53a22.39,22.39,0,0,1-44.09,0,1.88,1.88,0,0,1,1.87-2.21H54.18A1.88,1.88,0,0,1,56,46.53Z" style="fill:#ff5c5c;fill-rule:evenodd"/></g></g></svg>