<svg xmlns="http://www.w3.org/2000/svg" viewBox="0 0 68 68"><title>Asset 4</title><g id="Layer_2" data-name="Layer 2"><g id="Layer_1-2" data-name="Layer 1"><rect width="68" height="68" style="fill:none"/><path d="M60.32,3.74H57.47a3.89,3.89,0,0,0-3.89,3.9V62.28a2,2,0,0,0,1.93,2h6.76a2,2,0,0,0,2-2V7.64A3.93,3.93,0,0,0,60.32,3.74Z" style="fill:#ff5c5c"/><path d="M47.86,16.2H45a3.89,3.89,0,0,0-3.9,3.9V62.28a2,2,0,0,0,1.94,2h6.76a2,2,0,0,0,2-2V20.1A3.93,3.93,0,0,0,47.86,16.2Z" style="fill:#ff5c5c"/><path d="M22.95,41.12H20.1A3.89,3.89,0,0,0,16.2,45V62.28a2,2,0,0,0,1.94,2h6.76a2,2,0,0,0,2-2V45A3.92,3.92,0,0,0,22.95,41.12Z" style="fill:#ff5c5c"/><path d="M35.4,28.66H32.56a3.89,3.89,0,0,0-3.9,3.9V62.28a2,2,0,0,0,.82,1.61,1.93,1.93,0,0,0,1.12.37h6.76a2,2,0,0,0,2-2V32.56A3.93,3.93,0,0,0,35.4,28.66Z" style="fill:#ff5c5c"/><path d="M10.49,53.58H7.65a3.89,3.89,0,0,0-3.9,3.89v4.8a2,2,0,0,0,1.95,2h6.76a2,2,0,0,0,2-2v-4.8A3.92,3.92,0,0,0,10.49,53.58Z" style="fill:#ff5c5c"/><path d="M30.42,21.27v-14a3.32,3.32,0,0,0-3.55-3.55h-14a3.56,3.56,0,0,0,0,7.11h5.44L6.85,22.32a3.53,3.53,0,1,0,5,5L23.32,15.84v5.44a3.56,3.56,0,0,0,3.54,3.54A3.61,3.61,0,0,0,30.42,21.27Z" style="fill:#4fbd3c"/></g></g></svg>