<svg xmlns="http://www.w3.org/2000/svg" viewBox="0 0 40 40"><title>Asset 5</title><g id="Layer_2" data-name="Layer 2"><g id="Layer_1-2" data-name="Layer 1"><path d="M20,2A18,18,0,1,1,2,20,18,18,0,0,1,20,2m0-2A20,20,0,1,0,40,20,20,20,0,0,0,20,0Z" style="fill:#fff"/><path d="M20,11.8c2.67,0,3,0,4,.06a5.53,5.53,0,0,1,1.86.34,3.31,3.31,0,0,1,1.9,1.9A5.53,5.53,0,0,1,28.14,16c0,1.05.06,1.37.06,4s0,3-.06,4a5.53,5.53,0,0,1-.34,1.86,3.31,3.31,0,0,1-1.9,1.9,5.53,5.53,0,0,1-1.86.34c-1.05,0-1.37.06-4,.06s-3,0-4-.06a5.53,5.53,0,0,1-1.86-.34,3.31,3.31,0,0,1-1.9-1.9A5.53,5.53,0,0,1,11.86,24c0-1.05-.06-1.37-.06-4s0-3,.06-4a5.53,5.53,0,0,1,.34-1.86,3.31,3.31,0,0,1,1.9-1.9A5.53,5.53,0,0,1,16,11.86c1.05,0,1.37-.06,4-.06M20,10c-2.72,0-3.06,0-4.12.06a7.34,7.34,0,0,0-2.43.46,5.11,5.11,0,0,0-2.92,2.92,7.34,7.34,0,0,0-.46,2.43C10,16.94,10,17.28,10,20s0,3.06.06,4.12a7.34,7.34,0,0,0,.46,2.43,5.11,5.11,0,0,0,2.92,2.92,7.34,7.34,0,0,0,2.43.46c1.07,0,1.41.06,4.12.06s3.06,0,4.12-.06a7.34,7.34,0,0,0,2.43-.46,5.11,5.11,0,0,0,2.92-2.92,7.34,7.34,0,0,0,.46-2.43c0-1.07.06-1.41.06-4.12s0-3.06-.06-4.12a7.34,7.34,0,0,0-.46-2.43,5.11,5.11,0,0,0-2.92-2.92,7.34,7.34,0,0,0-2.43-.46C23.06,10,22.72,10,20,10Z" style="fill:#fff"/><path d="M20,14.86A5.14,5.14,0,1,0,25.14,20,5.14,5.14,0,0,0,20,14.86Zm0,8.47A3.33,3.33,0,1,1,23.33,20,3.33,3.33,0,0,1,20,23.33Z" style="fill:#fff"/><circle cx="25.34" cy="14.66" r="1.2" style="fill:#fff"/></g></g></svg>