<svg xmlns="http://www.w3.org/2000/svg" viewBox="0 0 40 40"><title>Asset 4</title><g id="Layer_2" data-name="Layer 2"><g id="Layer_1-2" data-name="Layer 1"><path d="M20,2A18,18,0,1,1,2,20,18,18,0,0,1,20,2m0-2A20,20,0,1,0,40,20,20,20,0,0,0,20,0Z" style="fill:#fff"/><path id="LinkedIn" d="M30.71,21.08v7.39H26.42v-6.9c0-1.73-.62-2.92-2.17-2.92a2.35,2.35,0,0,0-2.2,1.57,2.93,2.93,0,0,0-.14,1v7.2H17.62s.06-11.68,0-12.9h4.29v1.83l0,0h0v0a4.26,4.26,0,0,1,3.86-2.13C28.59,15.27,30.71,17.12,30.71,21.08ZM13.13,9.36a2.23,2.23,0,1,0-.06,4.46h0a2.24,2.24,0,1,0,0-4.46ZM11,28.47h4.29V15.58H11Z" style="fill:#fff"/></g></g></svg>