<svg xmlns="http://www.w3.org/2000/svg" viewBox="0 0 68 68"><title>Asset 5</title><g id="Layer_2" data-name="Layer 2"><g id="Layer_1-2" data-name="Layer 1"><rect width="68" height="68" style="fill:none"/><path d="M54.37,10H13.63a7.29,7.29,0,0,0-7.25,7.25V39.7a7.29,7.29,0,0,0,7.25,7.25H42.29L53.34,58V46.95h1a7.29,7.29,0,0,0,7.25-7.25V17.25A7.29,7.29,0,0,0,54.37,10ZM17.42,33.48A5.18,5.18,0,1,1,22.6,28.3,5.18,5.18,0,0,1,17.42,33.48Zm16.58,0a5.18,5.18,0,1,1,5.18-5.18A5.18,5.18,0,0,1,34,33.48Zm16.58,0a5.18,5.18,0,1,1,5.18-5.18A5.18,5.18,0,0,1,50.58,33.48Z" style="fill:#faaf40"/></g></g></svg>