<svg xmlns="http://www.w3.org/2000/svg" viewBox="0 0 68 68"><title>Asset 2</title><g id="Layer_2" data-name="Layer 2"><g id="Layer_1-2" data-name="Layer 1"><rect width="68" height="68" style="fill:none"/><path d="M50,29.6a3.28,3.28,0,0,0,4.65,0l1.91-1.91,1.91,1.91A3.28,3.28,0,1,0,63.07,25L61.15,23l1.91-1.91a3.28,3.28,0,0,0-4.65-4.64L56.51,18.4,54.6,16.49A3.28,3.28,0,0,0,50,21.14L51.87,23,50,25A3.29,3.29,0,0,0,50,29.6Z" style="fill:#ff5c5c"/><path d="M7.53,20a3.28,3.28,0,0,0,4.65,0L14.08,18,16,20a3.28,3.28,0,0,0,4.64-4.64L18.73,13.4l1.91-1.91A3.28,3.28,0,0,0,16,6.85L14.08,8.76,12.17,6.85a3.28,3.28,0,0,0-4.65,4.64L9.44,13.4,7.53,15.31A3.28,3.28,0,0,0,7.53,20Z" style="fill:#ff5c5c"/><path d="M43.25,4,30.63,4a3,3,0,0,0-3,3.11v.44a3.18,3.18,0,0,0,3,3.26l2.91,0A22.12,22.12,0,0,0,27.48,26.1a31.42,31.42,0,0,0,.67,6.44c1.54,7.34,2.19,10.63,3.15,14.68a8.91,8.91,0,1,0,6.5-.77c-1.3-5.72-3.19-15.18-3.6-18A17,17,0,0,1,34,26.1c0-4.2,2.17-8.39,5.36-11.58h0l.08-.08,0,4.83a3.52,3.52,0,0,0,3.26,3.36h.44a3.28,3.28,0,0,0,3.05-3.3l0-12.23A3.1,3.1,0,0,0,43.25,4Zm-7.72,48.7a2.35,2.35,0,1,1-1.66.69A2.34,2.34,0,0,1,35.52,52.73Z" style="fill:#4fbd3c"/><path d="M16.2,25.42a3,3,0,0,0-4.21,0L3.56,33.85a3.06,3.06,0,0,0,0,4.32l.31.31a3.07,3.07,0,0,0,4.33,0l2.54-2.64v11a5.2,5.2,0,0,0-2.89,2,8.91,8.91,0,1,0,12.62,0,5.37,5.37,0,0,0-3-2V35.84l2.6,2.72a3.05,3.05,0,0,0,4.31,0l.3-.31a3.06,3.06,0,0,0,0-4.32Zm-.4,31.32a2.35,2.35,0,1,1,.69-1.66A2.35,2.35,0,0,1,15.8,56.74Z" style="fill:#3c79cf"/><path d="M62.72,48.77a5.23,5.23,0,0,0-2.9-2V41.25h2.83A2.23,2.23,0,0,0,64.9,39V36.68a2.22,2.22,0,0,0-2.25-2.2H50.22A2.22,2.22,0,0,0,48,36.68V39a2.23,2.23,0,0,0,2.25,2.21H53v5.53a5.39,5.39,0,0,0-3,2,8.92,8.92,0,1,0,12.63,0Zm-4.65,8a2.35,2.35,0,1,1,.69-1.66A2.35,2.35,0,0,1,58.07,56.74Z" style="fill:#3c79cf"/></g></g></svg>