<svg xmlns="http://www.w3.org/2000/svg" viewBox="0 0 104 30"><title>Asset 15</title><g id="Layer_2" data-name="Layer 2"><g id="Layer_1-2" data-name="Layer 1"><path d="M92,29.54c-3.25,0-4.89-2.19-6.21-4s-2.13-2.75-3.8-2.75-2.49,1-3.8,2.75-3,4-6.2,4-4.89-2.19-6.2-4-2.13-2.75-3.8-2.75-2.49,1-3.8,2.75-3,4-6.2,4-4.89-2.19-6.2-4S43.66,22.83,42,22.83s-2.49,1-3.79,2.75-2.95,4-6.2,4-4.89-2.19-6.2-4-2.13-2.75-3.8-2.75-2.49,1-3.8,2.75-2.95,4-6.2,4-4.89-2.19-6.2-4S3.67,22.83,2,22.83a1.5,1.5,0,1,1,0-3c3.25,0,4.89,2.19,6.2,4s2.13,2.75,3.8,2.75,2.49-1,3.79-2.75,2.95-4,6.2-4,4.89,2.19,6.2,4,2.13,2.75,3.8,2.75,2.49-1,3.79-2.75,2.95-4,6.2-4,4.89,2.19,6.2,4,2.13,2.75,3.79,2.75,2.49-1,3.8-2.75,3-4,6.2-4,4.89,2.19,6.2,4,2.13,2.75,3.8,2.75,2.49-1,3.8-2.75,3-4,6.2-4,4.89,2.19,6.21,4,2.13,2.75,3.8,2.75,2.49-1,3.8-2.75,3-4,6.21-4a1.5,1.5,0,0,1,0,3c-1.67,0-2.49,1-3.8,2.75S95.25,29.54,92,29.54Z" style="fill:#fff"/><rect width="104" height="30" style="fill:none"/></g></g></svg>